<?xml version="1.0" encoding="UTF-8" standalone="no"?><!-- Generator: Gravit.io --><svg xmlns="http://www.w3.org/2000/svg" xmlns:xlink="http://www.w3.org/1999/xlink" style="isolation:isolate" viewBox="0 0 128 128" width="128pt" height="128pt"><defs><clipPath id="_clipPath_OrFA3OIlpq7LvhhAkFsvFrHxUnDTExw1"><rect width="128" height="128"/></clipPath></defs><g clip-path="url(#_clipPath_OrFA3OIlpq7LvhhAkFsvFrHxUnDTExw1)"><path d="M 112.372 8 L 117.628 8 C 118.937 8 120 9.063 120 10.372 L 120 117.628 C 120 118.937 118.937 120 117.628 120 L 112.372 120 C 111.063 120 110 118.937 110 117.628 L 110 10.372 C 110 9.063 111.063 8 112.372 8 Z" style="stroke:none;fill:#171717;stroke-miterlimit:10;"/><path d=" M 92.438 59 L 10.189 59 C 8.981 59 8 59.981 8 61.189 L 8 66.811 C 8 68.019 8.981 69 10.189 69 L 92.438 69 L 84.544 76.893 C 83.764 77.674 83.764 78.941 84.544 79.722 L 88.787 83.964 C 89.567 84.745 90.835 84.745 91.615 83.964 L 108.586 66.994 C 108.732 66.848 108.85 66.685 108.927 66.507 C 109.591 65.878 110 64.986 110 64 C 110 63.014 109.591 62.122 108.927 61.493 C 108.85 61.315 108.732 61.152 108.586 61.006 L 91.615 44.036 C 90.835 43.255 89.567 43.255 88.787 44.036 L 84.544 48.278 C 83.764 49.059 83.764 50.326 84.544 51.107 L 92.438 59 Z " fill="rgb(23,23,23)"/></g></svg>