<?xml version="1.0" encoding="UTF-8" standalone="no"?><!-- Generator: Gravit.io --><svg xmlns="http://www.w3.org/2000/svg" xmlns:xlink="http://www.w3.org/1999/xlink" style="isolation:isolate" viewBox="0 0 128 128" width="128pt" height="128pt"><defs><clipPath id="_clipPath_n7cIm7JG1wARAxWb7eTWqnxyohlvFRag"><rect width="128" height="128"/></clipPath></defs><g clip-path="url(#_clipPath_n7cIm7JG1wARAxWb7eTWqnxyohlvFRag)"><path d="M 61.372 8 L 66.628 8 C 67.937 8 69 9.063 69 10.372 L 69 117.628 C 69 118.937 67.937 120 66.628 120 L 61.372 120 C 60.063 120 59 118.937 59 117.628 L 59 10.372 C 59 9.063 60.063 8 61.372 8 Z" style="stroke:none;fill:#171717;stroke-miterlimit:10;"/><path d=" M 41.438 59 L 9.452 59 C 8.651 59 8 59.651 8 60.452 L 8 67.548 C 8 68.349 8.651 69 9.452 69 L 41.438 69 L 33.544 76.893 C 32.764 77.674 32.764 78.941 33.544 79.722 L 37.787 83.964 C 38.567 84.745 39.835 84.745 40.615 83.964 L 57.586 66.994 C 57.732 66.848 57.85 66.685 57.927 66.507 C 58.591 65.878 59 64.986 59 64 C 59 63.014 58.591 62.122 57.927 61.493 C 57.85 61.315 57.732 61.152 57.586 61.006 L 40.615 44.036 C 39.835 43.255 38.567 43.255 37.787 44.036 L 33.544 48.278 C 32.764 49.059 32.764 50.326 33.544 51.107 L 41.438 59 Z " fill="rgb(23,23,23)"/><path d=" M 70.073 61.493 C 70.15 61.315 70.268 61.152 70.414 61.006 L 87.385 44.036 C 88.165 43.255 89.433 43.255 90.213 44.036 L 94.456 48.278 C 95.236 49.059 95.236 50.326 94.456 51.107 L 86.562 59 L 118.548 59 C 119.349 59 120 59.651 120 60.452 L 120 67.548 C 120 68.349 119.349 69 118.548 69 L 86.562 69 L 94.456 76.893 C 95.236 77.674 95.236 78.941 94.456 79.722 L 90.213 83.964 C 89.433 84.745 88.165 84.745 87.385 83.964 L 70.414 66.994 C 70.268 66.848 70.15 66.685 70.073 66.507 C 69.409 65.878 69 64.986 69 64 C 69 63.014 69.409 62.122 70.073 61.493 Z " fill="rgb(23,23,23)"/></g></svg>