<?xml version="1.0" encoding="UTF-8" standalone="no"?><!-- Generator: Gravit.io --><svg xmlns="http://www.w3.org/2000/svg" xmlns:xlink="http://www.w3.org/1999/xlink" style="isolation:isolate" viewBox="0 0 580 100" width="580pt" height="100pt"><defs><clipPath id="_clipPath_Q8RiWkQwvlMyI7ri97zXQkTDQ7ZRkEdV"><rect width="580" height="100"/></clipPath></defs><g clip-path="url(#_clipPath_Q8RiWkQwvlMyI7ri97zXQkTDQ7ZRkEdV)"><g><path d=" M 548.2 61.3 L 542.7 61.3 L 542.3 61.3 L 542.3 61.3 C 542.4 61.3 542.6 61.3 542.7 61.3 C 548.9 61.3 554 56.3 554 50 C 554 43.7 549 38.7 542.7 38.7 C 542.6 38.7 542.4 38.7 542.3 38.7 L 542.3 38.7 L 542.7 38.7 L 548.2 38.7 C 557.5 38.7 565.1 31.1 565.1 21.8 C 565.1 12.5 557.5 4.9 548.2 4.9 L 542.3 4.9 L 528.5 4.9 L 503.2 4.9 C 492.3 4.9 483.5 13.7 483.5 24.6 C 483.5 25.6 483.6 26.5 483.7 27.4 L 483.7 27.4 L 483.7 72.4 L 483.7 72.4 C 483.6 73.3 483.5 74.3 483.5 75.2 C 483.5 86.1 492.3 94.9 503.2 94.9 L 528.5 94.9 L 542.3 94.9 L 548.2 94.9 C 557.5 94.9 565.1 87.3 565.1 78 C 565.1 68.8 557.5 61.3 548.2 61.3 Z " fill="rgb(242,109,131)"/></g><g><path d=" M 454.1 55.6 L 454.1 55.6 L 444.4 55.5 L 444.4 24.4 C 444.4 13.7 435.7 5 425 5 C 414.3 5 405.6 13.7 405.6 24.4 L 405.6 75 C 405.6 85.7 414.3 94.4 425 94.4 C 425.2 94.4 425.3 94.4 425.5 94.4 L 452.1 94.4 C 452.7 94.5 453.4 94.5 454.1 94.5 C 464.8 94.5 473.5 85.8 473.5 75.1 C 473.5 64.3 464.8 55.6 454.1 55.6 Z " fill="rgb(144,224,150)"/></g><path d=" M 275.4 55.6 L 275.4 55.6 L 272.3 55.6 L 287.9 40 C 292.2 36.4 295 30.9 295 24.9 C 295 14 286.3 5.2 275.4 5.1 L 275.4 5.1 L 224.5 5.1 L 224.5 5.1 C 213.7 5.1 205 13.9 205 24.7 C 205 35.5 213.7 44.3 224.5 44.4 L 224.5 44.4 L 227.7 44.4 L 211.2 60.9 C 207.4 64.5 205 69.6 205 75.3 C 205 86.1 213.6 94.8 224.4 95 L 224.4 95 L 275.4 95 L 275.4 95 C 286.3 95 295 86.2 295 75.3 C 295 64.4 286.2 55.6 275.4 55.6 Z " fill="rgb(255,165,102)"/><path d=" M 375.9 55.6 L 375.9 55.6 L 372.8 55.6 L 388.4 40 C 392.7 36.4 395.5 30.9 395.5 24.9 C 395.5 14 386.8 5.2 375.9 5.1 L 375.9 5.1 L 325 5.1 L 325 5.1 C 314.2 5.2 305.5 14 305.5 24.8 C 305.5 35.6 314.2 44.4 325 44.5 L 325 44.5 L 328.2 44.5 L 311.7 61 C 307.9 64.6 305.5 69.7 305.5 75.4 C 305.5 86.2 314.1 94.9 324.9 95.1 L 324.9 95.1 L 375.9 95.1 L 375.9 95.1 C 386.8 95.1 395.5 86.3 395.5 75.4 C 395.5 64.4 386.7 55.6 375.9 55.6 Z " fill="rgb(255,221,102)"/><path d=" M 105 22.075 C 105.054 12.807 112.595 5.3 121.875 5.3 L 121.875 5.3 L 175.521 5.3 C 176.37 5.168 177.24 5.1 178.125 5.1 C 187.439 5.1 195 12.661 195 21.975 C 195 22.008 195 22.042 195 22.075 L 195 22.075 L 195 44.475 L 194.651 44.475 C 194.881 46.318 195 48.195 195 50.1 C 195 74.936 174.836 95.1 150 95.1 C 125.164 95.1 105 74.936 105 50.1 C 105 48.195 105.119 46.318 105.349 44.475 L 105 44.475 L 105 22.175 L 105 22.175 L 105 22.075 L 105 22.075 Z " fill="rgb(201,165,239)"/><g><g><g><path d=" M 61.3 5 C 61.2 5 61.1 5 60.9 5 L 60.9 5 L 33 5 C 23.6 5 16 12.6 16 22 L 16 78 C 16 87.4 23.6 95 33 95 C 42.4 95 50 87.4 50 78 L 50.1 78 L 50.1 72.6 L 60.9 72.6 L 60.9 72.5 C 61 72.5 61.1 72.5 61.3 72.5 C 79.9 72.5 95 57.4 95 38.8 C 95 20.1 79.9 5 61.3 5 Z " fill="rgb(109,195,242)"/></g><g><path d=" M 61.3 5 C 61.2 5 61.1 5 60.9 5 L 60.9 5 L 33 5 C 23.6 5 16 12.6 16 22 L 16 78 C 16 87.4 23.6 95 33 95 C 42.4 95 50 87.4 50 78 L 50.1 78 L 50.1 72.6 L 60.9 72.6 L 60.9 72.5 C 61 72.5 61.1 72.5 61.3 72.5 C 79.9 72.5 95 57.4 95 38.8 C 95 20.1 79.9 5 61.3 5 Z " fill="rgb(109,195,242)"/></g></g></g></g></svg>